<svg xmlns="http://www.w3.org/2000/svg" width="640" height="360" viewBox="0 0 640 360" preserveAspectRatio="xMidYMid meet" role="img" aria-labelledby="domine-title domine-desc">
  <title id="domine-title">Preview da landing page Domine Marketing</title>
  <desc id="domine-desc">Interface roxa para curso de marketing digital.</desc>
  <defs>
    <linearGradient id="domine-bg" x1="0" y1="0" x2="1" y2="1">
      <stop stop-color="#312e81"/>
      <stop offset="1" stop-color="#120d2b"/>
    </linearGradient>
    <linearGradient id="domine-pink" x1="0" y1="0" x2="1" y2="1">
      <stop stop-color="#f0abfc"/>
      <stop offset="1" stop-color="#818cf8"/>
    </linearGradient>
  </defs>

  <rect width="640" height="360" rx="22" fill="url(#domine-bg)"/>
  <circle cx="526" cy="54" r="150" fill="#a855f7" opacity=".18"/>
  <path d="M438 0h202v170c-84-11-146-70-202-170Z" fill="#818cf8" opacity=".13"/>
  <rect x="35" y="31" width="570" height="298" rx="14" fill="#211747" stroke="#9b83e6" stroke-opacity=".72"/>
  <path d="M49 31h542a14 14 0 0 1 14 14v1H49v-1a14 14 0 0 1 14-14Z" fill="#261c52" opacity=".65"/>
  <rect x="62" y="57" width="106" height="19" rx="9.5" fill="#a78bfa"/>
  <text x="77" y="71" fill="#1f114a" font-family="Arial,sans-serif" font-size="9" font-weight="700" letter-spacing=".3">VAGAS LIMITADAS</text>
  <text x="72" y="111" fill="#d8b4fe" font-family="Arial,sans-serif" font-size="9" font-weight="700" letter-spacing="1.3">MÉTODO PRÁTICO DE CRESCIMENTO</text>
  <text x="72" y="142" fill="#fff" font-family="Arial,sans-serif" font-size="27" font-weight="700">Domine o Marketing</text>
  <text x="72" y="175" fill="#e9d5ff" font-family="Arial,sans-serif" font-size="27" font-weight="700">Digital do zero.</text>
  <text x="72" y="205" fill="#c4b5fd" font-family="Arial,sans-serif" font-size="12">Tráfego, copy e conversão em um só método.</text>
  <rect x="72" y="231" width="207" height="38" rx="19" fill="url(#domine-pink)"/>
  <text x="89" y="255" fill="#26134e" font-family="Arial,sans-serif" font-size="10.5" font-weight="700" letter-spacing=".1">QUERO GARANTIR MINHA VAGA</text>
  <path d="M259 250h9m-4-4 4 4-4 4" fill="none" stroke="#26134e" stroke-width="1.5" stroke-linecap="round" stroke-linejoin="round"/>
  <g opacity=".78">
    <path d="m485 113 17 35 39 5-29 25 8 38-35-19-35 19 8-38-29-25 39-5Z" fill="#f0abfc"/>
    <circle cx="502" cy="165" r="12" fill="#fff" opacity=".18"/>
    <path d="M479 228h52M473 239h64" stroke="#c4b5fd" stroke-width="2" stroke-linecap="round" opacity=".42"/>
  </g>
</svg>
